<svg width="1200" height="630" viewBox="0 0 1200 630" xmlns="http://www.w3.org/2000/svg">
  <defs>
    <linearGradient id="bg" x1="0" y1="0" x2="1" y2="1">
      <stop offset="0%" stop-color="#faf5ff"/>
      <stop offset="50%" stop-color="#ede9fe"/>
      <stop offset="100%" stop-color="#f0fdf4"/>
    </linearGradient>
  </defs>

  <rect width="1200" height="630" fill="url(#bg)"/>

  <circle cx="100" cy="100" r="120" fill="#e9d5ff" opacity="0.5"/>
  <circle cx="1150" cy="550" r="100" fill="#bbf7d0" opacity="0.5"/>
  <circle cx="1100" cy="80" r="80" fill="#c4b5fd" opacity="0.35"/>
  <circle cx="200" cy="560" r="70" fill="#ddd6fe" opacity="0.4"/>

  <rect x="60" y="180" width="220" height="280" rx="20" fill="white" opacity="0.9"/>
  <rect x="68" y="188" width="204" height="120" rx="12" fill="#ede9fe"/>
  <rect x="80" y="196" width="90" height="8" rx="4" fill="#7c3aed" opacity="0.3"/>
  <rect x="80" y="212" width="150" height="6" rx="3" fill="#7c3aed" opacity="0.15"/>
  <rect x="80" y="225" width="120" height="6" rx="3" fill="#7c3aed" opacity="0.15"/>
  <rect x="68" y="320" width="90" height="22" rx="11" fill="#7c3aed" opacity="0.15"/>
  <rect x="80" y="356" width="160" height="8" rx="4" fill="#374151" opacity="0.2"/>
  <rect x="80" y="372" width="120" height="6" rx="3" fill="#374151" opacity="0.12"/>
  <rect x="80" y="420" width="60" height="6" rx="3" fill="#9ca3af" opacity="0.4"/>

  <rect x="310" y="220" width="220" height="280" rx="20" fill="white" opacity="0.85"/>
  <rect x="318" y="228" width="204" height="120" rx="12" fill="#dcfce7"/>
  <rect x="330" y="360" width="90" height="22" rx="11" fill="#16a34a" opacity="0.15"/>
  <rect x="330" y="396" width="160" height="8" rx="4" fill="#374151" opacity="0.2"/>
  <rect x="330" y="412" width="100" height="6" rx="3" fill="#374151" opacity="0.12"/>
  <rect x="330" y="460" width="60" height="6" rx="3" fill="#9ca3af" opacity="0.4"/>

  <rect x="560" y="180" width="220" height="280" rx="20" fill="white" opacity="0.8"/>
  <rect x="568" y="188" width="204" height="120" rx="12" fill="#fce7f3"/>
  <rect x="580" y="320" width="90" height="22" rx="11" fill="#db2777" opacity="0.15"/>
  <rect x="580" y="356" width="160" height="8" rx="4" fill="#374151" opacity="0.2"/>
  <rect x="580" y="372" width="130" height="6" rx="3" fill="#374151" opacity="0.12"/>
  <rect x="580" y="420" width="60" height="6" rx="3" fill="#9ca3af" opacity="0.4"/>

  <text x="780" y="200" text-anchor="middle" font-family="system-ui, -apple-system, sans-serif" font-size="52" font-weight="800" fill="#7c3aed">Clippi</text>
  <text x="780" y="268" text-anchor="middle" font-family="system-ui, -apple-system, sans-serif" font-size="28" font-weight="600" fill="#1f2937">스마트 북마크 &amp;</text>
  <text x="780" y="308" text-anchor="middle" font-family="system-ui, -apple-system, sans-serif" font-size="28" font-weight="600" fill="#1f2937">테크 뉴스 매거진</text>
  <text x="780" y="368" text-anchor="middle" font-family="system-ui, -apple-system, sans-serif" font-size="18" fill="#6b7280">크롬 즐겨찾기는 이제 그만!</text>
  <text x="780" y="396" text-anchor="middle" font-family="system-ui, -apple-system, sans-serif" font-size="18" fill="#6b7280">카테고리별로 정리하고 어디서든 꺼내 쓰세요.</text>

  <rect x="660" y="430" width="240" height="52" rx="26" fill="#7c3aed"/>
  <text x="780" y="462" text-anchor="middle" font-family="system-ui, -apple-system, sans-serif" font-size="18" font-weight="600" fill="white">무료로 시작하기</text>

  <g>
    <rect x="1090" y="540" width="80" height="55" rx="13" fill="#7c3aed"/>
    <circle cx="1113" cy="566" r="8" fill="white"/>
    <circle cx="1147" cy="566" r="8" fill="white"/>
    <circle cx="1115" cy="564" r="4" fill="#7c3aed"/>
    <circle cx="1149" cy="564" r="4" fill="#7c3aed"/>
    <path d="M1122 540V533C1122 531 1123 530 1125 530H1115C1117 530 1118 531 1118 533V540" stroke="#7c3aed" stroke-width="2.5" stroke-linecap="round" fill="none"/>
  </g>
</svg>
